<svg height="457pt" viewBox="0 -41 457.14286 457" width="457pt" xmlns="http://www.w3.org/2000/svg"><path d="m424.152344 309.507812c21.320312-19.578124 32.992187-44.425781 32.992187-70.5 0-46.648437-37.636719-86.394531-90.164062-101.671874-4.585938-76.273438-84.933594-137.2656255-183.335938-137.2656255-101.261719 0-183.644531 64.6367185-183.644531 144.0820315 0 35.027344 15.972656 68.429687 45.105469 94.589844l-14.222657 77.550781c-.652343 3.554687.847657 7.164062 3.832032 9.199219 1.554687 1.0625 3.355468 1.597656 5.160156 1.597656 1.660156 0 3.332031-.457032 4.804688-1.367188l75.320312-46.464844c24.160156 7.132813 50.402344 9.867188 76.738281 8.429688 22.695313 35.386719 69.167969 59.769531 122.84375 59.769531 16.085938 0 31.703125-2.152343 46.480469-6.394531l54.519531 33.632812c1.472657.902344 3.140625 1.359376 4.800781 1.359376 1.804688 0 3.609376-.535157 5.160157-1.597657 2.984375-2.039062 4.484375-5.644531 3.832031-9.199219zm-302.660156-48.917968c-2.554688-.804688-5.296876-.457032-7.574219.929687l-61.335938 37.847657 11.453125-62.457032c.597656-3.230468-.589844-6.535156-3.105468-8.652344-27.5-23.105468-42.644532-52.980468-42.644532-84.105468 0-69.367188 74.179688-125.796875 165.359375-125.796875 86.296875 0 157.285157 50.488281 164.746094 114.640625-9.300781-1.570313-18.925781-2.433594-28.808594-2.433594-75.914062 0-137.664062 48.652344-137.664062 108.445312 0 10.660157 2.042969 20.9375 5.699219 30.675782-22.851563.40625-45.394532-2.519532-66.125-9.09375zm286.847656 38.472656c-2.519532 2.117188-3.707032 5.417969-3.109375 8.652344l7.449219 40.617187-40.519532-25c-1.464844-.894531-3.125-1.359375-4.804687-1.359375-.925781 0-1.855469.144532-2.757813.429688-14.179687 4.492187-29.320312 6.765625-45.015625 6.765625-65.824219 0-119.375-40.445313-119.375-90.160157 0-49.714843 53.550781-90.160156 119.375-90.160156 65.765625 0 119.273438 40.445313 119.273438 90.160156 0 22.1875-10.835938 43.511719-30.515625 60.054688zm0 0"/></svg>